<svg width="128" height="28" viewBox="0 0 128 28" fill="none" xmlns="http://www.w3.org/2000/svg">
<path fill-rule="evenodd" clip-rule="evenodd" d="M46.3148 14.0026H42.0005V9.33468H46.2355C48.2714 9.33468 49.5162 9.84335 49.5162 11.668H49.5407C49.5407 13.2547 48.3507 14.0026 46.3148 14.0026ZM46.5799 4.66748H37.334V23.3344H42.0007V18.6676H46.1833C50.3343 18.6676 53.6663 15.9516 53.6663 11.6676C53.6663 7.88518 50.9958 4.66748 46.5799 4.66748Z" fill="white"/>
<path fill-rule="evenodd" clip-rule="evenodd" d="M63.0007 4.66724H58.334V23.3341H70.0008V18.6674H63.0007V4.66724Z" fill="white"/>
<path fill-rule="evenodd" clip-rule="evenodd" d="M117.276 18.6667H114.335V9.33321H117.276C120.608 9.33321 122.856 10.7204 122.856 13.9999C122.856 17.2795 120.608 18.6667 117.276 18.6667ZM117.276 4.66675H109.668V23.3336H117.276C123.094 23.3336 127.168 19.2094 127.168 14.0002C127.168 8.79096 123.094 4.66675 117.276 4.66675Z" fill="white"/>
<path fill-rule="evenodd" clip-rule="evenodd" d="M98.001 23.3341H102.668V4.66724H98.001V23.3341Z" fill="white"/>
<path fill-rule="evenodd" clip-rule="evenodd" d="M81.9593 16.3335L84.001 10.8886L86.0427 16.3335H81.9593ZM88.6677 23.3336H93.3344L86.3343 4.66675H81.6676L74.6675 23.3336H79.3342L80.2092 21.0003H87.7926L88.6677 23.3336Z" fill="white"/>
<path opacity="0.8" fill-rule="evenodd" clip-rule="evenodd" d="M24.8892 9.33344L15.5557 0L0 15.5557L9.33344 24.8892L24.8892 9.33344Z" fill="white"/>
<path opacity="0.8" fill-rule="evenodd" clip-rule="evenodd" d="M12.4446 9.33314L6.2223 3.11084L0 9.33314L12.4446 21.7777L18.6669 15.5554L12.4446 9.33314Z" fill="white"/>
<path opacity="0.8" fill-rule="evenodd" clip-rule="evenodd" d="M12.4446 15.5555L6.2223 9.33325L0 15.5555L12.4446 28.0001L18.6669 21.7778L12.4446 15.5555Z" fill="white"/>
<path opacity="0.8" fill-rule="evenodd" clip-rule="evenodd" d="M0 15.469L12.4446 27.9136L18.6669 21.6913L24.8892 9.24672L18.6669 6.13557L6.22229 12.3579L0 9.24672V15.469Z" fill="white"/>
<path fill-rule="evenodd" clip-rule="evenodd" d="M15.5559 18.6667L12.4448 21.7778L3.11133 12.4444L6.22248 9.33325L15.5559 18.6667Z" fill="white"/>
</svg>
